# xmcd
#
# Track frame offsets:
#	150
#	21578
#	39622
#	57065
#	79972
#	98836
#	114329
#	132312
#	153585
#	171081
#	187997
#	206680
#	225048
#	238974
#	257710
#	279180
#	297908
#	318399
#	338056
#
# Disc length: 4798 seconds
#
# Revision: 0
# Processed by: cddbd v1.5.1PL0 Copyright (c) Steve Scherf et al.
# Submitted via: EasyCDDAExtractor 8.0.2.1
#
DISCID=0812bc13
DTITLE=Various Artist - Brandy vs. Monica
DYEAR=2003
DGENRE=R&B
TTITLE0=Brandy and Monica - The Boy Is Mine
TTITLE1=Brandy - Full Moon
TTITLE2=Monica - So Gone
TTITLE3=Brandy - Baby, Baby
TTITLE4=Monica - Don't Take It Personal (Just One Of Dem Days)
TTITLE5=Brandy - Almost Doesn't Count
TTITLE6=Monica - Angel Of Mine
TTITLE7=Brandy - I Wanna Be Down
TTITLE8=Monica - All Eyez On Me (Version 1)
TTITLE9=Brandy - What About Us?
TTITLE10=Monica - Get It Off
TTITLE11=Brandy - I Wanna Be Down Remix (Featuring MC Lyte, YoYo and Queen Latif
TTITLE11=ah)
TTITLE12=Monica - So Gone Remix (Featuring Memphis Bleek)
TTITLE13=Brandy - What About Us Remix (Featuring Nas)
TTITLE14=Monica - Before You Walk Out Of My Life
TTITLE15=Brandy - Brokenhearted (Featuring Wanya Of Boyz II Men)
TTITLE16=Monica - Slow Jam (Featuring Usher)
TTITLE17=Brandy - Have You Ever?
TTITLE18=Monica - For You I Will
EXTD=
EXTT0=
EXTT1=
EXTT2=
EXTT3=
EXTT4=
EXTT5=
EXTT6=
EXTT7=
EXTT8=
EXTT9=
EXTT10=
EXTT11=
EXTT12=
EXTT13=
EXTT14=
EXTT15=
EXTT16=
EXTT17=
EXTT18=
PLAYORDER=
